# xmcd
#
# Track frame offsets:
#	150
#	21172
#	38093
#	54086
#	75355
#	94132
#	116669
#	138130
#	156545
#	176249
#	201591
#	216094
#
# Disc length: 3196 seconds
#
# Revision: 0
# Processed by: cddbd v1.5.1PL2 Copyright (c) Steve Scherf et al.
# Submitted via: EasyCDDAExtractor 7.1.2.1
#
DISCID=a10c7a0c
DTITLE=Various Artist - Έχουν Περάσει Χρόνοι Δέκα...
DYEAR=2005
DGENRE=
TTITLE0=Μίλτος Πασχαλίδης - Σου Τηλεφωνώ
TTITLE1=Μίλτος Πασχαλίδης - Ο Τρελός
TTITLE2=Θοδωρής Παυλάκος - Σαν Τραγουδάκι
TTITLE3=Μίλτος Πασχαλίδης - Κακές Συνήθειες
TTITLE4=Χρήστος Θηβαίος - ’γγελος Με Τους Αγγέλους
TTITLE5=Χρήστος Θηβαίος - Μίλτος Πασχαλίδης - Φωτιά Μου
TTITLE6=Γιάννης Χαρούλης - Της Λήθης Το Πηγάδι
TTITLE7=Ελένη Τσαλιγοπούλου - Αμανές
TTITLE8=Ελένη Τσαλιγοπούλου - Ελένη
TTITLE9=Δημήτρης Μητροπάνος - Πεθαμένες Καλησπέρες
TTITLE10=Μίλτος Πασχαλίδης - Στα Είπα Όλα
TTITLE11=Μίλτος Πασχαλίδης - Ερωτόκριτος
EXTD=
EXTT0=
EXTT1=
EXTT2=
EXTT3=
EXTT4=
EXTT5=
EXTT6=
EXTT7=
EXTT8=
EXTT9=
EXTT10=
EXTT11=
PLAYORDER=
